<?xml version="1.0" standalone="no"?>
<!DOCTYPE svg PUBLIC "-//W3C//DTD SVG 20010904//EN"
 "http://www.w3.org/TR/2001/REC-SVG-20010904/DTD/svg10.dtd">
<svg version="1.0" xmlns="http://www.w3.org/2000/svg"
 width="735.000000pt" height="407.000000pt" viewBox="0 0 735.000000 407.000000"
 preserveAspectRatio="xMidYMid meet">
<metadata>
Created by potrace 1.16, written by Peter Selinger 2001-2019
</metadata>
<g transform="translate(0.000000,407.000000) scale(0.100000,-0.100000)"
fill="#000000" stroke="none">
<path d="M1350 3713 c-285 -28 -541 -93 -725 -186 -262 -131 -397 -331 -356
-529 83 -406 787 -765 1621 -828 149 -11 391 -12 429 -1 22 6 19 9 -35 33
-216 96 -305 128 -357 128 -135 0 -411 51 -597 110 -512 164 -778 457 -650
716 83 170 333 296 690 351 153 23 476 23 650 -1 324 -44 627 -145 830 -277
103 -68 214 -184 252 -265 78 -167 18 -321 -175 -447 l-78 -51 36 -13 c20 -7
93 -27 162 -44 l125 -31 68 46 c95 65 175 152 213 233 29 62 32 77 32 163 0
89 -2 100 -36 170 -176 363 -795 652 -1539 720 -105 9 -476 12 -560 3z"/>
<path d="M5480 3714 c-249 -28 -345 -42 -465 -70 -635 -145 -1070 -432 -1145
-753 -38 -164 59 -348 252 -475 l57 -38 148 37 c206 52 196 45 118 90 -91 54
-162 126 -198 202 -26 56 -29 72 -25 136 5 98 42 171 133 263 87 88 165 141
309 210 625 300 1575 276 1922 -49 107 -99 142 -202 110 -321 -64 -235 -389
-447 -856 -557 -118 -28 -333 -59 -408 -59 -56 0 -83 -8 -244 -77 -175 -75
-180 -78 -147 -86 19 -5 132 -7 254 -3 833 22 1571 333 1762 741 25 53 28 71
28 160 0 93 -2 105 -32 165 -113 229 -426 392 -893 465 -100 16 -587 30 -680
19z"/>
<path d="M1798 2821 c-55 -8 -61 -13 -77 -60 -28 -84 -5 -178 51 -215 13 -9
123 -56 243 -105 489 -198 722 -314 915 -455 69 -50 140 -116 140 -128 0 -22
-123 -135 -211 -194 -93 -62 -353 -194 -383 -194 -8 0 -16 6 -18 13 -3 8 -36
13 -105 15 -92 4 -103 2 -122 -17 -17 -17 -21 -33 -21 -79 0 -52 3 -62 30 -87
23 -22 41 -29 84 -33 49 -4 72 2 233 66 280 111 525 179 706 198 59 6 67 9 67
28 0 32 32 78 82 119 25 21 48 37 52 37 3 0 6 -36 6 -79 0 -61 -3 -80 -15 -85
-12 -4 -15 -24 -15 -91 l0 -85 277 0 c259 0 279 -1 319 -21 58 -28 118 -88
151 -151 23 -45 27 -67 30 -153 1 -55 0 -94 -3 -87 -3 6 -23 12 -44 12 -32 0
-39 -4 -42 -22 -3 -20 -7 -16 -27 22 -32 61 -135 162 -199 194 -196 99 -427
62 -575 -93 -105 -111 -142 -211 -135 -366 8 -151 73 -274 193 -362 84 -63
152 -85 270 -91 113 -5 191 15 276 69 60 38 141 124 169 180 13 24 25 38 27
32 3 -7 21 -13 42 -13 34 0 38 3 51 43 14 39 18 42 52 42 20 0 40 4 45 8 12
13 16 354 5 497 -12 148 -34 217 -93 284 -49 55 -175 121 -264 137 -33 7 -66
13 -72 15 -9 2 -13 28 -13 84 0 90 4 94 65 59 20 -12 57 -26 83 -31 72 -13
162 -60 234 -121 36 -31 80 -58 99 -62 73 -16 292 -90 446 -151 120 -47 175
-64 210 -64 92 0 142 57 129 145 -10 63 -31 75 -136 75 -62 0 -92 -4 -108 -16
-20 -14 -28 -14 -55 -3 -60 24 -271 129 -321 161 -77 48 -182 136 -218 181
l-32 40 54 49 c187 166 521 338 1093 564 160 63 200 91 217 154 11 43 -1 130
-25 166 -22 34 -140 42 -293 18 -45 -7 -64 -52 -61 -142 l2 -66 -174 -63
c-309 -112 -611 -212 -734 -242 -293 -74 -575 -101 -839 -83 -350 25 -575 81
-1116 277 -160 58 -295 105 -300 105 -6 0 -10 32 -10 74 0 88 -11 123 -43 135
-34 13 -193 21 -249 12z m2018 -1682 c143 -54 241 -172 266 -323 40 -244 -161
-476 -413 -476 -101 0 -225 56 -296 133 -127 138 -147 334 -50 496 99 165 309
238 493 170z"/>
<path d="M3569 1066 c-133 -47 -221 -169 -222 -305 -1 -38 7 -89 17 -119 22
-64 99 -152 159 -181 166 -80 359 -18 445 144 24 45 27 61 27 150 0 92 -2 104
-30 154 -60 109 -167 171 -293 171 -37 -1 -83 -7 -103 -14z m156 -17 c76 -21
133 -84 121 -133 -6 -24 -10 -26 -129 -80 -42 -19 -112 -60 -154 -91 -85 -62
-113 -67 -145 -24 -46 62 -29 165 40 241 38 42 74 64 137 84 51 16 80 17 130
3z"/>
<path d="M1930 2010 c-632 -57 -952 -296 -708 -528 62 -59 105 -87 212 -138
289 -136 681 -202 1136 -191 316 7 540 49 732 134 l57 25 -14 29 c-8 15 -15
41 -15 57 0 16 -2 31 -5 34 -14 14 -108 -14 -157 -46 -101 -67 -265 -115 -470
-137 -77 -8 -126 -20 -193 -48 -78 -31 -101 -36 -170 -36 -86 0 -118 12 -177
64 -25 22 -50 31 -108 41 -197 31 -398 98 -507 169 -171 111 -182 230 -31 331
235 157 809 192 1280 78 72 -17 90 -19 103 -8 14 11 6 20 -57 66 -40 30 -89
58 -108 63 -135 36 -593 60 -800 41z"/>
<path d="M4915 2009 c-55 -5 -147 -16 -204 -24 -98 -14 -107 -18 -180 -68
-126 -86 -104 -98 102 -54 175 38 291 50 497 50 206 1 327 -12 473 -49 288
-72 411 -206 310 -336 -85 -109 -295 -202 -566 -250 -101 -18 -127 -26 -152
-49 -56 -50 -94 -64 -180 -64 -69 0 -91 5 -160 34 -61 27 -110 38 -210 52 -71
9 -149 20 -172 24 l-43 8 6 -49 c4 -27 8 -50 9 -52 25 -31 647 -38 840 -9 538
81 897 250 922 436 10 72 -4 109 -61 166 -179 180 -703 279 -1231 234z"/>
</g>
</svg>
